<svg width="40" height="41" viewBox="0 0 40 41" fill="none" xmlns="http://www.w3.org/2000/svg">
<path d="M20 0.0369873C17.3736 0.0369873 14.7728 0.567146 12.3463 1.59719C9.91982 2.62724 7.71504 4.13701 5.85786 6.04029C2.10714 9.88413 0 15.0975 0 20.5335C0 29.593 5.74 37.2792 13.68 40.0052C14.68 40.1692 15 39.5338 15 38.9804V35.5165C9.46 36.7463 8.28 32.77 8.28 32.77C7.36 30.3924 6.06 29.757 6.06 29.757C4.24 28.4862 6.2 28.5272 6.2 28.5272C8.2 28.6707 9.26 30.6383 9.26 30.6383C11 33.7538 13.94 32.8315 15.08 32.3395C15.26 31.0073 15.78 30.1054 16.34 29.593C11.9 29.0806 7.24 27.3179 7.24 19.5087C7.24 17.2336 8 15.4094 9.3 13.9541C9.1 13.4417 8.4 11.3101 9.5 8.54305C9.5 8.54305 11.18 7.98965 15 10.6337C16.58 10.1828 18.3 9.95731 20 9.95731C21.7 9.95731 23.42 10.1828 25 10.6337C28.82 7.98965 30.5 8.54305 30.5 8.54305C31.6 11.3101 30.9 13.4417 30.7 13.9541C32 15.4094 32.76 17.2336 32.76 19.5087C32.76 27.3384 28.08 29.0601 23.62 29.5725C24.34 30.2079 25 31.4582 25 33.3644V38.9804C25 39.5338 25.32 40.1897 26.34 40.0052C34.28 37.2587 40 29.593 40 20.5335C40 17.8419 39.4827 15.1766 38.4776 12.6898C37.4725 10.2031 35.9993 7.94356 34.1421 6.04029C32.285 4.13701 30.0802 2.62724 27.6537 1.59719C25.2272 0.567146 22.6264 0.0369873 20 0.0369873Z" fill="white"/>
</svg>
